<?xml version="1.0" encoding="UTF-8"?>
<svg width="26px" height="25px" viewBox="0 0 26 25" version="1.1" xmlns="http://www.w3.org/2000/svg" xmlns:xlink="http://www.w3.org/1999/xlink">
    <!-- Generator: Sketch 51.2 (57519) - http://www.bohemiancoding.com/sketch -->
    <title>profile</title>
    <desc>Created with Sketch.</desc>
    <defs></defs>
    <g id="Page-1" stroke="none" stroke-width="1" fill="none" fill-rule="evenodd">
        <g id="Tablet-Copy" transform="translate(-568.000000, -157.000000)" fill="#000000" fill-rule="nonzero">
            <g id="pop-Up-Menu" transform="translate(526.000000, 72.000000)">
                <g id="My-Account" transform="translate(42.000000, 85.000000)">
                    <g id="profile">
                        <path d="M12.9442199,13.901656 C16.7827234,13.901656 19.8961312,10.7882021 19.8961312,6.94974468 C19.8961312,3.11128723 16.7826773,0.0191312057 12.9442199,0.0191312057 C9.10576241,0.0191312057 5.99230851,3.13258511 5.99230851,6.94974468 C5.99230851,10.7669043 9.10571631,13.901656 12.9442199,13.901656 Z M12.9442199,1.83175532 C15.7590887,1.83175532 18.0622092,4.13482979 18.0622092,6.94974468 C18.0622092,9.76465957 15.7590887,12.0676879 12.9442199,12.0676879 C10.1293511,12.0676879 7.8262305,9.76461348 7.8262305,6.94969858 C7.8262305,4.13478369 10.129305,1.83175532 12.9442199,1.83175532 Z" id="Shape"></path>
                        <path d="M0.916960993,24.7560106 L25.0567624,24.7560106 C25.5685567,24.7560106 25.9737234,24.350844 25.9737234,23.8390496 C25.9737234,19.0409433 22.0712801,15.117156 17.2518298,15.117156 L8.72189362,15.117156 C3.92378723,15.117156 0,19.0195993 0,23.8390496 C0,24.350844 0.405166667,24.7560106 0.916960993,24.7560106 Z M8.72189362,16.951078 L17.2518298,16.951078 C20.7491064,16.951078 23.627961,19.5527376 24.0758156,22.9220426 L1.8979078,22.9220426 C2.34571631,19.5740816 5.22461702,16.951078 8.72189362,16.951078 Z" id="Shape"></path>
                    </g>
                </g>
            </g>
        </g>
    </g>
</svg>