<?xml version="1.0" encoding="UTF-8"?>
<svg width="20px" height="20px" viewBox="0 0 20 20" version="1.1" xmlns="http://www.w3.org/2000/svg" xmlns:xlink="http://www.w3.org/1999/xlink">
    <!-- Generator: Sketch 51.2 (57519) - http://www.bohemiancoding.com/sketch -->
    <title>close</title>
    <desc>Created with Sketch.</desc>
    <defs></defs>
    <g id="Page-1" stroke="none" stroke-width="1" fill="none" fill-rule="evenodd">
        <g id="Tablet-Copy" transform="translate(-876.000000, -91.000000)" fill="#000000" fill-rule="nonzero">
            <g id="pop-Up-Menu" transform="translate(526.000000, 72.000000)">
                <g id="close" transform="translate(350.000000, 19.000000)">
                    <path d="M11.4745575,9.75020326 L19.1426904,2.08175071 C19.6191032,1.60572453 19.6191032,0.833350706 19.1426904,0.357324522 C18.6662775,-0.119108174 17.8947489,-0.119108174 17.4183361,0.357324522 L9.75020325,8.02577706 L2.08166392,0.357324522 C1.60525109,-0.119108174 0.833722457,-0.119108174 0.357309625,0.357324522 C-0.119103208,0.833350706 -0.119103208,1.60572453 0.357309625,2.08175071 L8.02584895,9.75020326 L0.357309625,17.4186558 C-0.119103208,17.894682 -0.119103208,18.6670558 0.357309625,19.143082 C0.595516041,19.3808918 0.907704655,19.5 1.21948677,19.5 C1.53126889,19.5 1.84345751,19.3808918 2.08166392,19.1426755 L9.75020325,11.4742229 L17.4183361,19.1426755 C17.6565425,19.3808918 17.9687311,19.5 18.2805132,19.5 C18.5922953,19.5 18.904484,19.3808918 19.1426904,19.1426755 C19.6191032,18.6666493 19.6191032,17.8942755 19.1426904,17.4182493 L11.4745575,9.75020326 Z" id="Shape"></path>
                </g>
            </g>
        </g>
    </g>
</svg>