<?xml version="1.0" encoding="UTF-8"?>
<svg width="30px" height="15px" viewBox="0 0 30 15" version="1.1" xmlns="http://www.w3.org/2000/svg" xmlns:xlink="http://www.w3.org/1999/xlink">
    <!-- Generator: Sketch 51.2 (57519) - http://www.bohemiancoding.com/sketch -->
    <title>menu</title>
    <desc>Created with Sketch.</desc>
    <defs></defs>
    <g id="Page-1" stroke="none" stroke-width="1" fill="none" fill-rule="evenodd">
        <g id="Desktop-HD" transform="translate(-44.000000, -33.000000)" fill="#000000" fill-rule="nonzero">
            <g id="Navigation-bar">
                <g id="Hamburger-icon">
                    <g id="menu" transform="translate(59.000000, 40.500000) rotate(180.000000) translate(-59.000000, -40.500000) translate(44.000000, 33.000000)">
                        <path d="M28.3461925,6 L0.91437124,6 C0.409604872,6 0,6.39764131 0,6.8875 C0,7.37735869 0.40968088,7.775 0.91437124,7.775 L28.3461925,7.775 C28.8509589,7.775 29.2605638,7.37735869 29.2605638,6.8875 C29.2605638,6.39764131 28.8509589,6 28.3461925,6 Z" id="Shape"></path>
                        <path d="M14.8080743,12.5 L0.705129651,12.5 C0.315872293,12.5 0,12.8770268 0,13.3414902 C0,13.8060236 0.315930907,14.1829804 0.705129651,14.1829804 L14.8080743,14.1829804 C15.1973317,14.1829804 15.513204,13.8059536 15.513204,13.3414902 C15.5132626,12.8769568 15.1973317,12.5 14.8080743,12.5 Z" id="Shape"></path>
                        <path d="M25.8080743,0 L11.7051297,0 C11.3158723,0 11,0.376359102 11,0.84 C11,1.30371072 11.3159309,1.68 11.7051297,1.68 L25.8080743,1.68 C26.1973317,1.68 26.513204,1.3036409 26.513204,0.84 C26.5132626,0.376289277 26.1973317,0 25.8080743,0 Z" id="Shape-Copy"></path>
                    </g>
                </g>
            </g>
        </g>
    </g>
</svg>