<?xml version="1.0" encoding="UTF-8"?>
<svg width="19px" height="22px" viewBox="0 0 19 22" version="1.1" xmlns="http://www.w3.org/2000/svg" xmlns:xlink="http://www.w3.org/1999/xlink">
    <!-- Generator: Sketch 51.2 (57519) - http://www.bohemiancoding.com/sketch -->
    <title>Shape</title>
    <desc>Created with Sketch.</desc>
    <defs></defs>
    <g id="Page-1" stroke="none" stroke-width="1" fill="none" fill-rule="evenodd">
        <g id="Desktop-HD" transform="translate(-1158.000000, -30.000000)" fill="#464647" fill-rule="nonzero">
            <g id="Navigation-bar">
                <g id="User-account" transform="translate(1119.000000, 0.000000)">
                    <g id="user-regular">
                        <path d="M52.3,42.8854003 C51.0828125,42.8854003 50.4975446,43.5645453 48.5,43.5645453 C46.5024554,43.5645453 45.9214286,42.8854003 44.7,42.8854003 C41.553125,42.8854003 39,45.4406835 39,48.5902186 L39,49.6768506 C39,50.8016846 39.9118304,51.7142857 41.0357143,51.7142857 L55.9642857,51.7142857 C57.0881696,51.7142857 58,50.8016846 58,49.6768506 L58,48.5902186 C58,45.4406835 55.446875,42.8854003 52.3,42.8854003 Z M55.9685535,49.6860283 L41.0314465,49.6860283 L41.0314465,48.5952007 C41.0314465,46.5669433 42.6779231,44.9136578 44.6978273,44.9136578 C45.3173778,44.9136578 46.3230864,45.595425 48.5,45.595425 C50.6938876,45.595425 51.6783787,44.9136578 52.3021727,44.9136578 C54.3220769,44.9136578 55.9685535,46.5669433 55.9685535,48.5952007 L55.9685535,49.6860283 Z M48.4402516,42.1695447 C51.8048349,42.1695447 54.5345912,39.4440738 54.5345912,36.0847724 C54.5345912,32.725471 51.8048349,30 48.4402516,30 C45.0756682,30 42.3459119,32.725471 42.3459119,36.0847724 C42.3459119,39.4440738 45.0756682,42.1695447 48.4402516,42.1695447 Z M48.4402516,32.0282575 C50.6790749,32.0282575 52.5031447,33.8494636 52.5031447,36.0847724 C52.5031447,38.3200811 50.6790749,40.1412873 48.4402516,40.1412873 C46.2014282,40.1412873 44.3773585,38.3200811 44.3773585,36.0847724 C44.3773585,33.8494636 46.2014282,32.0282575 48.4402516,32.0282575 Z" id="Shape"></path>
                    </g>
                </g>
            </g>
        </g>
    </g>
</svg>