<?xml version="1.0" encoding="UTF-8"?>
<svg width="22px" height="22px" viewBox="0 0 22 22" version="1.1" xmlns="http://www.w3.org/2000/svg" xmlns:xlink="http://www.w3.org/1999/xlink">
    <!-- Generator: Sketch 51.2 (57519) - http://www.bohemiancoding.com/sketch -->
    <title>addition-thick-symbol</title>
    <desc>Created with Sketch.</desc>
    <defs></defs>
    <g id="Page-1" stroke="none" stroke-width="1" fill="none" fill-rule="evenodd">
        <g id="Desktop-HD" transform="translate(-41.000000, -594.000000)" fill="#616267" fill-rule="nonzero">
            <g id="addition-thick-symbol" transform="translate(41.000000, 594.000000)">
                <path d="M10.9775941,0 C9.84122509,0 8.91990406,0.922295203 8.91990406,2.05866421 L8.91990406,8.91966052 L2.05842066,8.91966052 C0.922051661,8.91966052 0.000243542435,9.84098155 0.000243542435,10.9778376 C0.000243542435,12.1146937 0.922051661,13.0365018 2.05842066,13.0365018 L8.91990406,13.0365018 L8.91990406,19.8979852 C8.91990406,21.0333801 9.84122509,21.9556753 10.9775941,21.9556753 C12.1149373,21.9556753 13.0362583,21.0338672 13.0362583,19.8979852 L13.0362583,13.0365018 L19.8972546,13.0365018 C21.0341107,13.0365018 21.9554317,12.1151808 21.9554317,10.9778376 C21.9554317,9.84098155 21.0341107,8.91966052 19.8972546,8.91966052 L13.0362583,8.91966052 L13.0362583,2.05866421 C13.0362583,0.922295203 12.1149373,0 10.9775941,0 Z" id="Shape"></path>
            </g>
        </g>
    </g>
</svg>