<?xml version="1.0" encoding="UTF-8"?>
<svg width="22px" height="28px" viewBox="0 0 22 28" version="1.1" xmlns="http://www.w3.org/2000/svg" xmlns:xlink="http://www.w3.org/1999/xlink">
    <!-- Generator: Sketch 51.2 (57519) - http://www.bohemiancoding.com/sketch -->
    <title>Shape</title>
    <desc>Created with Sketch.</desc>
    <defs></defs>
    <g id="Page-1" stroke="none" stroke-width="1" fill="none" fill-rule="evenodd">
        <g id="Desktop-HD" transform="translate(-1338.000000, -27.000000)" fill="#000000" fill-rule="nonzero">
            <g id="Navigation-bar">
                <g id="shopping-bag" transform="translate(1306.000000, 0.000000)">
                    <path d="M53.9943792,50.9248367 L52.4205416,33.0788443 C52.3868166,32.682644 52.0551865,32.3826638 51.667348,32.3826638 L48.4297394,32.3826638 C48.3847726,29.4055017 45.9678079,27 43,27 C40.0321921,27 37.6152274,29.4055017 37.5702606,32.3826638 L34.332652,32.3826638 C33.9391926,32.3826638 33.6131834,32.682644 33.5794584,33.0788443 L32.0056208,50.9248367 C32.0056208,50.9474767 32,50.9701168 32,50.9927568 C32,53.0246982 33.8492591,54.6774194 36.1257026,54.6774194 L49.8742974,54.6774194 C52.1507409,54.6774194 54,53.0246982 54,50.9927568 C54,50.9701168 54,50.9474767 53.9943792,50.9248367 Z M43,28.5282011 C45.1303015,28.5282011 46.8671436,30.2488423 46.9121104,32.3826638 L39.0878896,32.3826638 C39.1328564,30.2488423 40.8696985,28.5282011 43,28.5282011 Z M49.8742974,53.1492183 L36.1257026,53.1492183 C34.6980072,53.1492183 33.5401124,52.1983376 33.517629,51.0267168 L35.0240164,33.9165248 L37.5646398,33.9165248 L37.5646398,36.2371265 C37.5646398,36.6616268 37.9018906,37.001227 38.3234543,37.001227 C38.7450179,37.001227 39.0822688,36.6616268 39.0822688,36.2371265 L39.0822688,33.9165248 L46.9121104,33.9165248 L46.9121104,36.2371265 C46.9121104,36.6616268 47.2493613,37.001227 47.6709249,37.001227 C48.0924885,37.001227 48.4297394,36.6616268 48.4297394,36.2371265 L48.4297394,33.9165248 L50.9703628,33.9165248 L52.482371,51.0267168 C52.4598876,52.1983376 51.296372,53.1492183 49.8742974,53.1492183 Z" id="Shape"></path>
                </g>
            </g>
        </g>
    </g>
</svg>