<?xml version="1.0" encoding="UTF-8"?>
<svg width="27px" height="27px" viewBox="0 0 27 27" version="1.1" xmlns="http://www.w3.org/2000/svg" xmlns:xlink="http://www.w3.org/1999/xlink">
<title>question</title>
<desc>Created with Sketch.</desc>
<defs></defs>
<g id="Page-1" stroke="none" stroke-width="1" fill="none" fill-rule="evenodd">
<g id="Tablet-Copy" transform="translate(-568.000000, -322.000000)" fill="#000000" fill-rule="nonzero">
<g id="question" transform="translate(568.000000, 322.000000)">
<path d="M26.8939512,24.4506094 L25.0403906,19.056252 C25.931918,17.2541074 26.403416,15.2454023 26.4065801,13.2241992 C26.411959,9.743625 25.0652813,6.45252539 22.6145039,3.9573457 C20.1633574,1.46169141 16.897043,0.056953125 13.4173652,0.00174023437 C11.5942852,-0.0275273438 9.82525781,0.308390625 8.15674219,0.999052734 C6.54744727,1.66524609 5.10426563,2.63023242 3.86732812,3.86716992 C2.63033789,5.10410742 1.66535156,6.54728906 0.999210937,8.15658398 C0.308548828,9.82509961 -0.027,11.5950234 0.00184570312,13.417207 C0.056953125,16.8968848 1.46174414,20.1631992 3.95739844,22.6143984 C6.44772656,25.060377 9.73033594,26.4066328 13.2034219,26.4065801 C13.2102246,26.4065801 13.2173965,26.4065801 13.2241992,26.4065801 C15.2454023,26.403416 17.2541074,25.931918 19.0563047,25.0403906 L24.4506621,26.8939512 C24.6581191,26.965248 24.8707441,27 25.0810488,27 C25.5806543,27 26.0666543,26.8037227 26.4351621,26.4351094 C26.9587617,25.9115098 27.1346309,25.1510801 26.8939512,24.4506094 Z M25.3032188,25.3032187 C25.2501152,25.3563223 25.1364199,25.4369004 24.9707813,25.3800527 L19.2546914,23.4159082 C19.1701582,23.3869043 19.08225,23.3724551 18.9946055,23.3724551 C18.8654062,23.3724551 18.7367871,23.4037266 18.6202969,23.465373 C16.9682871,24.3393398 15.1014902,24.802875 13.221668,24.8057227 C6.91727344,24.8159004 1.70226562,19.6952344 1.60238672,13.3918418 C1.55213086,10.2204492 2.75848242,7.23984961 4.99921875,4.99911328 C7.23995508,2.75842969 10.2196582,1.55228906 13.3919473,1.60243945 C19.6952871,1.70237109 24.8155313,6.91479492 24.8057227,13.2217207 C24.8027695,15.1015957 24.3392871,16.9683926 23.465373,18.6202969 C23.3619082,18.8158359 23.3440313,19.0454941 23.4159082,19.2546914 L25.3800527,24.9707813 C25.4369531,25.1363145 25.356375,25.250168 25.3032188,25.3032187 Z" id="Shape"></path>
<path d="M13.0733789,19.1292891 C12.6547207,19.1292891 12.253623,19.4974277 12.2729766,19.9296914 C12.2923828,20.3633262 12.6246621,20.7300938 13.0733789,20.7300938 C13.4920371,20.7300938 13.8931348,20.3619551 13.8737813,19.9296914 C13.854375,19.4960039 13.5220957,19.1292891 13.0733789,19.1292891 Z" id="Shape"></path>
<path d="M13.0733789,6.73280859 C10.8775723,6.73280859 9.09114258,8.51923828 9.09114258,10.7150449 C9.09114258,11.1570645 9.44952539,11.5154473 9.89154492,11.5154473 C10.3335645,11.5154473 10.6919473,11.1570645 10.6919473,10.7150449 C10.6919473,9.40195898 11.760293,8.33361328 13.0733789,8.33361328 C14.3864648,8.33361328 15.4548105,9.40195898 15.4548105,10.7150449 C15.4548105,12.0281309 14.3864648,13.0964766 13.0733789,13.0964766 C12.6313594,13.0964766 12.2729766,13.4548594 12.2729766,13.8968789 L12.2729766,17.1614004 C12.2729766,17.6034199 12.6313594,17.9618027 13.0733789,17.9618027 C13.5153984,17.9618027 13.8737812,17.6034727 13.8737812,17.1613477 L13.8737812,14.6164395 C15.6872637,14.2449258 17.0556152,12.636791 17.0556152,10.7150449 C17.0556152,8.51923828 15.2691855,6.73280859 13.0733789,6.73280859 Z" id="Shape"></path>
</g>
</g>
</g>
</svg>
