<?xml version="1.0" encoding="UTF-8"?>
<svg width="33px" height="29px" viewBox="0 0 33 29" version="1.1" xmlns="http://www.w3.org/2000/svg" xmlns:xlink="http://www.w3.org/1999/xlink">
    <!-- Generator: Sketch 51.2 (57519) - http://www.bohemiancoding.com/sketch -->
    <title>Shape</title>
    <desc>Created with Sketch.</desc>
    <defs></defs>
    <g id="Page-1" stroke="none" stroke-width="1" fill="none" fill-rule="evenodd">
        <g id="Desktop-HD-Copy" transform="translate(-489.000000, -25.000000)" fill="#909090" fill-rule="nonzero">
            <g id="Navigation-bar" transform="translate(0.000000, -1.000000)">
                <g id="Search-Bar" transform="translate(452.000000, 0.000000)">
                    <g id="next" transform="translate(157.500000, 40.500000) rotate(180.000000) translate(-157.500000, -40.500000) translate(37.000000, 26.000000)">
                        <path d="M240.665783,12.2173437 L226.093038,0.207507646 C225.822546,-0.0156480921 225.443857,-0.0629841577 225.126029,0.0857863341 C224.808201,0.234556826 224.605333,0.55914699 224.605333,0.910786334 L224.605333,7.24029453 C217.531972,7.49726174 212.669882,9.99254863 210.140783,14.6652945 C207.963324,18.6956224 207.983611,23.4698027 208.003898,26.6277945 C208.003898,26.8847617 208.003898,27.1282044 208.003898,27.3581224 C208.003898,27.7706224 208.281152,28.1357863 208.68689,28.2439831 C208.761275,28.2642699 208.842423,28.2710322 208.916808,28.2710322 C209.241398,28.2710322 209.545701,28.1019749 209.707997,27.8111962 C214.644472,19.1081224 218.708611,18.6888601 224.59857,18.6685732 L224.59857,24.9777945 C224.59857,25.3294339 224.801439,25.654024 225.126029,25.8027945 C225.45062,25.951565 225.822546,25.904229 226.0998,25.6810732 L240.665783,13.6306634 C240.875415,13.4548437 240.997136,13.1978765 240.997136,12.9273847 C240.997136,12.6568929 240.875415,12.3931634 240.665783,12.2173437 Z M226.431152,23.0370158 L226.431152,17.7556634 C226.431152,17.5122208 226.33648,17.2823027 226.16066,17.1132454 C225.991603,16.944188 225.754923,16.8427535 225.518242,16.8427535 C221.839554,16.8427535 219.019677,16.944188 216.280947,18.2222617 C213.914144,19.3245158 211.865169,21.1976716 209.843242,24.1392699 C209.92439,21.4546388 210.276029,18.2493109 211.743447,15.5376306 C214.069677,11.2368109 218.573365,9.10668797 225.518242,9.04582732 C226.018652,9.03906502 226.42439,8.63332732 226.42439,8.13291748 L226.42439,2.84480273 L238.643857,12.9273847 L226.431152,23.0370158 Z" id="Shape"></path>
                    </g>
                </g>
            </g>
        </g>
    </g>
</svg>