<?xml version="1.0" encoding="UTF-8"?>
<svg width="19px" height="19px" viewBox="0 0 19 19" version="1.1" xmlns="http://www.w3.org/2000/svg" xmlns:xlink="http://www.w3.org/1999/xlink">
    <!-- Generator: Sketch 51.2 (57519) - http://www.bohemiancoding.com/sketch -->
    <title>instagram-icon</title>
    <desc>Created with Sketch.</desc>
    <defs></defs>
    <g id="Page-1" stroke="none" stroke-width="1" fill="none" fill-rule="evenodd">
        <g id="Desktop-HD" transform="translate(-1332.000000, -2746.000000)" fill="#BFC3CE" fill-rule="nonzero">
            <g id="Footer-section" transform="translate(-3.000000, 1989.000000)">
                <g id="Footer-bottom" transform="translate(90.000000, 756.000000)">
                    <g id="Social-Media" transform="translate(963.000000, 0.000000)">
                        <g id="Social-media-icons" transform="translate(148.000000, 0.000000)">
                            <g id="instagram-icon" transform="translate(134.000000, 1.000000)">
                                <path d="M9.50211936,4.62863996 C6.80630229,4.62863996 4.63184607,6.80358139 4.63184607,9.5 C4.63184607,12.1964186 6.80630229,14.3713601 9.50211936,14.3713601 C12.1979365,14.3713601 14.3723926,12.1964186 14.3723926,9.5 C14.3723926,6.80358139 12.1979365,4.62863996 9.50211936,4.62863996 Z M9.50211935,12.66702 C7.76001115,12.66702 6.33580591,11.2467366 6.33580591,9.5 C6.33580591,7.75326342 7.75577245,6.33298003 9.50211935,6.33298003 C11.2484662,6.33298003 12.6684328,7.75326342 12.6684328,9.5 C12.6684328,11.2467366 11.2442275,12.66702 9.50211935,12.66702 Z M15.7075851,4.42937633 C15.7075851,5.06108446 15.1989403,5.56560304 14.5716118,5.56560304 C13.9400447,5.56560304 13.4356386,5.05684481 13.4356386,4.42937633 C13.4356386,3.80190784 13.9442833,3.29314961 14.5716118,3.29314961 C15.1989403,3.29314961 15.7075851,3.80190784 15.7075851,4.42937633 Z M18.9332403,5.58256164 C18.8611824,4.06052661 18.5136084,2.7123173 17.3988287,1.6015285 C16.2882878,0.490739708 14.9403792,0.143088252 13.4186838,0.0667745175 C11.8503625,-0.0222581725 7.14963748,-0.0222581725 5.58131623,0.0667745175 C4.06385945,0.1388486 2.71595091,0.486500056 1.60117122,1.59728885 C0.486391523,2.70807765 0.143056331,4.05628696 0.0667596208,5.57832199 C-0.0222532069,7.1469932 -0.0222532069,11.8487671 0.0667596208,13.4174384 C0.138817624,14.9394734 0.486391523,16.2876827 1.60117122,17.3984715 C2.71595091,18.5092603 4.05962075,18.8569117 5.58131623,18.9332254 C7.14963748,19.0222582 11.8503625,19.0222582 13.4186838,18.9332254 C14.9403792,18.8611514 16.2882878,18.5134999 17.3988287,17.3984715 C18.5093698,16.2876827 18.8569437,14.9394734 18.9332403,13.4174384 C19.0222532,11.8487671 19.0222532,7.15123285 18.9332403,5.58256164 Z M16.9071389,15.1005802 C16.5765198,15.9315519 15.9364751,16.5717394 15.1014501,16.9066718 C13.8510318,17.4027112 10.8839375,17.2882405 9.50211935,17.2882405 C8.12030117,17.2882405 5.14896821,17.3984715 3.90278862,16.9066718 C3.07200223,16.575979 2.43195761,15.9357916 2.09709984,15.1005802 C1.60117122,13.8498828 1.71561628,10.8821265 1.71561628,9.5 C1.71561628,8.11787348 1.60540993,5.1458775 2.09709984,3.89941983 C2.42771891,3.06844807 3.06776353,2.42826063 3.90278862,2.09332812 C5.15320692,1.59728885 8.12030117,1.71175945 9.50211935,1.71175945 C10.8839375,1.71175945 13.8552705,1.6015285 15.1014501,2.09332812 C15.9322365,2.42402097 16.5722811,3.06420842 16.9071389,3.89941983 C17.4030675,5.15011715 17.2886224,8.11787348 17.2886224,9.5 C17.2886224,10.8821265 17.4030675,13.8541225 16.9071389,15.1005802 Z" id="Shape"></path>
                            </g>
                        </g>
                    </g>
                </g>
            </g>
        </g>
    </g>
</svg>