
<svg width="23px" height="16px" viewBox="0 0 23 16" version="1.1" xmlns="http://www.w3.org/2000/svg" xmlns:xlink="http://www.w3.org/1999/xlink">
  <title>left-arrow</title>
  <desc>Created with Sketch.</desc>
  <defs></defs>
  <g id="Page-1" stroke="none" stroke-width="1" fill="none" fill-rule="evenodd">
   <g id="Desktop-HD-Copy-3" transform="translate(-18.000000, -110.000000)" fill="#3E3F43" fill-rule="nonzero">
    <g id="Pop-up-nav" transform="translate(0.000000, 80.000000)">
     <g id="left-arrow" transform="translate(18.288770, 30.000000)">
    <path d="M21.5845486,6.71359102 L3.33428845,6.71359102 L7.68906679,1.89975062 C8.0705731,1.47830424 8.0705731,0.794638404 7.68906679,0.373254364 C7.30756048,-0.0484413965 6.68905099,-0.0484413965 6.3081087,0.373254364 L0.286129733,7.02973815 C-0.0953765776,7.45118454 -0.0953765776,8.13491272 0.286129733,8.55623441 L6.3081087,15.2130299 C6.49880546,15.4239401 6.7487248,15.5292394 6.99858775,15.5292394 C7.24845069,15.5292394 7.49837004,15.4239401 7.68906679,15.2130299 C8.0705731,14.7915835 8.0705731,14.1079177 7.68906679,13.686596 L3.33428845,8.87250623 L21.5845486,8.87250623 C22.1238691,8.87250623 22.5612138,8.38915212 22.5612138,7.79301746 C22.5612138,7.19688279 22.1239255,6.71359102 21.5845486,6.71359102 Z" id="Shape"></path>
     </g>
    </g>
  </g>
  </g>
</svg>
