<?xml version="1.0" encoding="UTF-8"?>
<svg width="19px" height="18px" viewBox="0 0 19 18" version="1.1" xmlns="http://www.w3.org/2000/svg" xmlns:xlink="http://www.w3.org/1999/xlink">
    <!-- Generator: Sketch 51.2 (57519) - http://www.bohemiancoding.com/sketch -->
    <title>add-song</title>
    <desc>Created with Sketch.</desc>
    <defs></defs>
    <g id="Page-1" stroke="none" stroke-width="1" fill="none" fill-rule="evenodd">
        <g id="Desktop-HD-Copy-3" transform="translate(-336.000000, -244.000000)" fill="#585858" fill-rule="nonzero">
            <g id="Pop-up-nav" transform="translate(0.000000, 80.000000)">
                <g id="Grid-Container" transform="translate(18.288770, 106.000000)">
                    <g id="list-3" transform="translate(0.000000, 56.000000)">
                        <g id="add-song" transform="translate(318.021390, 2.000000)">
                            <path d="M17.0674586,7.87507857 L10.2404624,7.87507857 L10.2404624,1.12498429 C10.2404624,0.503659576 9.7310648,0 9.10266152,0 C8.47425824,0 7.96486061,0.503659576 7.96486061,1.12498429 L7.96486061,7.87501571 L1.13792805,7.87501571 C0.509524765,7.87501571 0,8.37867529 0,9 C0,9.62132471 0.509524765,10.1249843 1.13792805,10.1249843 L7.96486061,10.1249843 L7.96486061,16.8750157 C7.96486061,17.4963404 8.47425824,18 9.10266152,18 C9.7310648,18 10.2404624,17.4963404 10.2404624,16.8750157 L10.2404624,10.1249843 L17.0674586,10.1249843 C17.6958618,10.1249843 18.2052595,9.62126186 18.2052595,9 C18.205323,8.37873814 17.6958618,7.87507857 17.0674586,7.87507857 Z" id="Shape"></path>
                        </g>
                    </g>
                </g>
            </g>
        </g>
    </g>
</svg>