<?xml version="1.0" encoding="UTF-8"?>
<svg width="27px" height="30px" viewBox="0 0 27 30" version="1.1" xmlns="http://www.w3.org/2000/svg" xmlns:xlink="http://www.w3.org/1999/xlink">
    <!-- Generator: Sketch 51.2 (57519) - http://www.bohemiancoding.com/sketch -->
    <title>Return package</title>
    <desc>Created with Sketch.</desc>
    <defs></defs>
    <g id="Page-1" stroke="none" stroke-width="1" fill="none" fill-rule="evenodd">
        <g id="Tablet-Copy" transform="translate(-568.000000, -267.000000)" fill="#000000" fill-rule="nonzero">
            <g id="Group" transform="translate(568.000000, 267.000000)">
                <g id="Return-package">
                    <g id="package-copy">
                        <path d="M26.987643,6.901373 C26.987643,6.79016018 26.9629291,6.67894737 26.9135011,6.57391304 C26.8146453,6.36384439 26.6231121,6.22173913 26.4130435,6.1784897 L13.82746,0.0741418764 C13.6235698,-0.0247139588 13.3826087,-0.0247139588 13.1787185,0.0741418764 L0.469565217,6.23409611 C0.222425629,6.35148741 0.061784897,6.598627 0.0494279176,6.87665904 L0.0494279176,6.88283753 C0.0494279176,6.88901602 0.0494279176,6.89519451 0.0494279176,6.90755149 L0.0494279176,22.3661327 C0.0494279176,22.6503432 0.21006865,22.9098398 0.469565217,23.0334096 L13.1787185,29.1933638 C13.184897,29.1933638 13.184897,29.1933638 13.1910755,29.1995423 C13.209611,29.2057208 13.2281465,29.2118993 13.2466819,29.2242563 C13.2528604,29.2242563 13.2590389,29.2304348 13.2713959,29.2304348 C13.2899314,29.2366133 13.3084668,29.2427918 13.3270023,29.2489703 C13.3331808,29.2489703 13.3393593,29.2551487 13.3455378,29.2551487 C13.3640732,29.2613272 13.3887872,29.2613272 13.4073227,29.2675057 C13.4135011,29.2675057 13.4196796,29.2675057 13.4258581,29.2675057 C13.4505721,29.2675057 13.4814645,29.2736842 13.5061785,29.2736842 C13.5308924,29.2736842 13.5617849,29.2736842 13.5864989,29.2675057 C13.5926773,29.2675057 13.5988558,29.2675057 13.6050343,29.2675057 C13.6235698,29.2675057 13.6482838,29.2613272 13.6668192,29.2551487 C13.6729977,29.2551487 13.6791762,29.2489703 13.6853547,29.2489703 C13.7038902,29.2427918 13.7224256,29.2366133 13.7409611,29.2304348 C13.7471396,29.2304348 13.7533181,29.2242563 13.7656751,29.2242563 C13.7842105,29.2180778 13.802746,29.2118993 13.8212815,29.1995423 C13.82746,29.1995423 13.82746,29.1995423 13.8336384,29.1933638 L26.5798627,23.0148741 C26.8331808,22.8913043 27,22.6318078 27,22.3475973 L27,6.91990847 C26.987643,6.91372998 26.987643,6.90755149 26.987643,6.901373 Z M13.5,1.56315789 L24.5224256,6.90755149 L20.4631579,8.8784897 L9.44073227,3.53409611 L13.5,1.56315789 Z M13.5,12.2519451 L2.47757437,6.90755149 L7.7416476,4.35583524 L18.7640732,9.70022883 L13.5,12.2519451 Z M1.53226545,8.1 L12.7585812,13.5432494 L12.7585812,27.3398169 L1.53226545,21.8965675 L1.53226545,8.1 Z M14.2414188,27.3398169 L14.2414188,13.5432494 L19.5116705,10.9853547 C19.5116705,10.9853547 19.6217218,10.9853547 19.7274874,10.9326649 C19.7825775,10.9052203 19.836505,10.8634806 19.8731121,10.8 C19.98,10.6146453 19.7274874,10.7473102 19.7274874,10.9326649 L20.994508,10.2624714 L25.5048055,8.07528604 L25.5048055,21.8718535 L14.2414188,27.3398169 Z" id="Shape"></path>
                    </g>
                    <g id="arrow-left" transform="translate(3.000000, 13.000000)">
                        <path d="M5.81393178,9.89668046 L5.31278914,10.4359032 C5.10059361,10.6642227 4.75746893,10.6642227 4.5475308,10.4359032 L0.159146647,5.71648974 C-0.0530488824,5.48817021 -0.0530488824,5.11897265 0.159146647,4.89308204 L4.5475308,0.171239655 C4.75972633,-0.0570798849 5.10285101,-0.0570798849 5.31278914,0.171239655 L5.81393178,0.710462397 C6.02838471,0.941210867 6.02386991,1.31769521 5.80490218,1.54358582 L3.08473608,4.33199892 L9.57250153,4.33199892 C9.87273563,4.33199892 20.25,4.34657251 20.25,4.34657251 L20.25,4.89308204 C20.25,5.2161299 20.25,5.71648974 20.25,5.71648974 L3.08473608,6.27514394 L5.80490218,9.06355703 C6.02612731,9.28944764 6.0306421,9.66593199 5.81393178,9.89668046 Z" id="Shape"></path>
                    </g>
                </g>
            </g>
        </g>
    </g>
</svg>