<?xml version="1.0" encoding="UTF-8"?>
<svg width="22px" height="20px" viewBox="0 0 22 20" version="1.1" xmlns="http://www.w3.org/2000/svg" xmlns:xlink="http://www.w3.org/1999/xlink">
    <!-- Generator: Sketch 51.2 (57519) - http://www.bohemiancoding.com/sketch -->
    <title>th-large-solid</title>
    <desc>Created with Sketch.</desc>
    <defs></defs>
    <g id="Page-1" stroke="none" stroke-width="1" fill="none" fill-rule="evenodd">
        <g id="Desktop-HD" transform="translate(-1308.000000, -389.000000)" fill="#BFC3CE" fill-rule="nonzero">
            <g id="Main-content" transform="translate(0.000000, 81.000000)">
                <g id="Group" transform="translate(89.000000, 285.000000)">
                    <g id="Config-panel">
                        <g id="View-menu" transform="translate(1088.000000, 0.000000)">
                            <g id="Sort-contain" transform="translate(22.000000, 23.000000)">
                                <g id="th-large-solid" transform="translate(109.000000, 0.000000)">
                                    <path d="M12.71875,0 L20.96875,0 C21.5383008,0 22,0.461699219 22,1.03125 L22,7.90625 C22,8.47580078 21.5383008,8.9375 20.96875,8.9375 L12.71875,8.9375 C12.1491992,8.9375 11.6875,8.47580078 11.6875,7.90625 L11.6875,1.03125 C11.6875,0.461699219 12.1491992,0 12.71875,0 Z M9.28125,0 L1.03125,0 C0.461699219,0 0,0.461699219 0,1.03125 L0,7.90625 C0,8.47580078 0.461699219,8.9375 1.03125,8.9375 L9.28125,8.9375 C9.85080078,8.9375 10.3125,8.47580078 10.3125,7.90625 L10.3125,1.03125 C10.3125,0.461699219 9.85080078,0 9.28125,0 Z M0,11.34375 L0,18.21875 C0,18.7883008 0.461699219,19.25 1.03125,19.25 L9.28125,19.25 C9.85080078,19.25 10.3125,18.7883008 10.3125,18.21875 L10.3125,11.34375 C10.3125,10.7741992 9.85080078,10.3125 9.28125,10.3125 L1.03125,10.3125 C0.461699219,10.3125 0,10.7741992 0,11.34375 Z M12.71875,19.25 L20.96875,19.25 C21.5383008,19.25 22,18.7883008 22,18.21875 L22,11.34375 C22,10.7741992 21.5383008,10.3125 20.96875,10.3125 L12.71875,10.3125 C12.1491992,10.3125 11.6875,10.7741992 11.6875,11.34375 L11.6875,18.21875 C11.6875,18.7883008 12.1491992,19.25 12.71875,19.25 Z" id="Shape"></path>
                                </g>
                            </g>
                        </g>
                    </g>
                </g>
            </g>
        </g>
    </g>
</svg>