<?xml version="1.0" encoding="UTF-8"?>
<svg width="22px" height="17px" viewBox="0 0 22 17" version="1.1" xmlns="http://www.w3.org/2000/svg" xmlns:xlink="http://www.w3.org/1999/xlink">
    <!-- Generator: Sketch 51.2 (57519) - http://www.bohemiancoding.com/sketch -->
    <title>list-solid</title>
    <desc>Created with Sketch.</desc>
    <defs></defs>
    <g id="Page-1" stroke="none" stroke-width="1" fill="none" fill-rule="evenodd">
        <g id="Desktop-HD" transform="translate(-1262.000000, -390.000000)" fill="#434544" fill-rule="nonzero">
            <g id="Main-content" transform="translate(0.000000, 81.000000)">
                <g id="Group" transform="translate(89.000000, 285.000000)">
                    <g id="Config-panel">
                        <g id="View-menu" transform="translate(1088.000000, 0.000000)">
                            <g id="Sort-contain" transform="translate(22.000000, 23.000000)">
                                <g id="list-solid" transform="translate(63.000000, 1.000000)">
                                    <path d="M5.5,2.77884615 L5.5,1.14423077 C5.5,0.783103365 5.80778516,0.490384615 6.1875,0.490384615 L21.3125,0.490384615 C21.6922148,0.490384615 22,0.783103365 22,1.14423077 L22,2.77884615 C22,3.13997356 21.6922148,3.43269231 21.3125,3.43269231 L6.1875,3.43269231 C5.80778516,3.43269231 5.5,3.13997356 5.5,2.77884615 Z M6.1875,9.97115385 L21.3125,9.97115385 C21.6922148,9.97115385 22,9.6784351 22,9.31730769 L22,7.68269231 C22,7.3215649 21.6922148,7.02884615 21.3125,7.02884615 L6.1875,7.02884615 C5.80778516,7.02884615 5.5,7.3215649 5.5,7.68269231 L5.5,9.31730769 C5.5,9.6784351 5.80778516,9.97115385 6.1875,9.97115385 Z M6.1875,16.5096154 L21.3125,16.5096154 C21.6922148,16.5096154 22,16.2168966 22,15.8557692 L22,14.2211538 C22,13.8600264 21.6922148,13.5673077 21.3125,13.5673077 L6.1875,13.5673077 C5.80778516,13.5673077 5.5,13.8600264 5.5,14.2211538 L5.5,15.8557692 C5.5,16.2168966 5.80778516,16.5096154 6.1875,16.5096154 Z M0.6875,3.92307692 L3.4375,3.92307692 C3.81721484,3.92307692 4.125,3.63035817 4.125,3.26923077 L4.125,0.653846154 C4.125,0.29271875 3.81721484,0 3.4375,0 L0.6875,0 C0.307785156,0 0,0.29271875 0,0.653846154 L0,3.26923077 C0,3.63035817 0.307785156,3.92307692 0.6875,3.92307692 Z M0.6875,10.4615385 L3.4375,10.4615385 C3.81721484,10.4615385 4.125,10.1688197 4.125,9.80769231 L4.125,7.19230769 C4.125,6.83118029 3.81721484,6.53846154 3.4375,6.53846154 L0.6875,6.53846154 C0.307785156,6.53846154 0,6.83118029 0,7.19230769 L0,9.80769231 C0,10.1688197 0.307785156,10.4615385 0.6875,10.4615385 Z M0.6875,17 L3.4375,17 C3.81721484,17 4.125,16.7072813 4.125,16.3461538 L4.125,13.7307692 C4.125,13.3696418 3.81721484,13.0769231 3.4375,13.0769231 L0.6875,13.0769231 C0.307785156,13.0769231 0,13.3696418 0,13.7307692 L0,16.3461538 C0,16.7072813 0.307785156,17 0.6875,17 Z" id="Shape"></path>
                                </g>
                            </g>
                        </g>
                    </g>
                </g>
            </g>
        </g>
    </g>
</svg>