<?xml version="1.0" encoding="UTF-8"?>
<svg width="25px" height="17px" viewBox="0 0 25 17" version="1.1" xmlns="http://www.w3.org/2000/svg" xmlns:xlink="http://www.w3.org/1999/xlink">
    <!-- Generator: Sketch 51.2 (57519) - http://www.bohemiancoding.com/sketch -->
    <title>youtube-icon</title>
    <desc>Created with Sketch.</desc>
    <defs></defs>
    <g id="Page-1" stroke="none" stroke-width="1" fill="none" fill-rule="evenodd">
        <g id="Desktop-HD" transform="translate(-1285.000000, -2747.000000)" fill="#BFC3CE" fill-rule="nonzero">
            <g id="Footer-section" transform="translate(-3.000000, 1989.000000)">
                <g id="Footer-bottom" transform="translate(90.000000, 756.000000)">
                    <g id="Social-Media" transform="translate(963.000000, 0.000000)">
                        <g id="Social-media-icons" transform="translate(148.000000, 0.000000)">
                            <g id="youtube-icon" transform="translate(87.000000, 2.000000)">
                                <path d="M24.4123271,2.65992448 C24.1255729,1.61291927 23.2806954,0.788330729 22.2079577,0.508494792 C20.2635436,0 12.4666667,0 12.4666667,0 C12.4666667,0 4.66983537,0 2.72537558,0.508494792 C1.65263788,0.788375 0.807760489,1.61291927 0.5210062,2.65992448 C0,4.55768229 0,8.51717708 0,8.51717708 C0,8.51717708 0,12.4766718 0.5210062,14.3744297 C0.807760489,15.4214349 1.65263788,16.2116693 2.72537558,16.4915052 C4.66983537,17 12.4666667,17 12.4666667,17 C12.4666667,17 20.2634979,17 22.2079577,16.4915052 C23.2806954,16.2116693 24.1255729,15.4214349 24.4123271,14.3744297 C24.9333333,12.4766718 24.9333333,8.51717708 24.9333333,8.51717708 C24.9333333,8.51717708 24.9333333,4.55768229 24.4123271,2.65992448 Z M9.91664903,12.1121015 L9.91664903,4.9222526 L16.4332897,8.51726562 L9.91664903,12.1121015 Z" id="Shape"></path>
                            </g>
                        </g>
                    </g>
                </g>
            </g>
        </g>
    </g>
</svg>